<svg height="512" width="512" xmlns="http://www.w3.org/2000/svg"><path d="M112 44c-2.63 0-5.21 1.069-7.07 2.93S102 51.37 102 54s1.069 5.21 2.93 7.069C106.79 62.93 109.37 64 112 64s5.21-1.07 7.069-2.931C120.93 59.21 122 56.63 122 54s-1.07-5.21-2.931-7.07A10.067 10.067 0 00112 44zm-48 0c-2.63 0-5.21 1.069-7.07 2.93S54 51.359 54 54c0 2.63 1.069 5.21 2.93 7.069C58.79 62.93 61.37 64 64 64s5.21-1.07 7.069-2.931C72.93 59.21 74 56.63 74 54s-1.07-5.21-2.931-7.07A10.067 10.067 0 0064 44zm96 0c-2.63 0-5.21 1.069-7.07 2.93S150 51.37 150 54s1.069 5.21 2.93 7.069C154.79 62.93 157.37 64 160 64s5.21-1.07 7.069-2.931C168.93 59.21 170 56.63 170 54s-1.07-5.21-2.931-7.07A10.05 10.05 0 00160 44z"/><path d="M458 272.073V42c0-23.159-18.841-42-42-42H42C18.841 0 0 18.841 0 42v388c0 23.159 18.841 42 42 42h78.113c5.522 0 10-4.478 10-10s-4.478-10-10-10H42c-12.131 0-22-9.869-22-22V108h418v151.827C420.21 250.984 400.178 246 379 246c-73.337 0-133 59.663-133 133 0 26.94 8.059 52.03 21.882 73h-57.769c-5.522 0-10 4.478-10 10s4.478 10 10 10h73.908c24.157 24.666 57.808 40 94.979 40 73.337 0 133-59.663 133-133 0-43.777-21.263-82.677-54-106.927zM20 88V42c0-12.131 9.869-22 22-22h374c12.131 0 22 9.869 22 22v46zm359 404c-62.309 0-113-50.691-113-113s50.691-113 113-113 113 50.691 113 113-50.691 113-113 113z"/><path d="M337.107 342.393c-3.906-3.904-10.236-3.904-14.143 0l-29.536 29.536c-3.905 3.905-3.905 10.237 0 14.143l29.536 29.536c1.953 1.952 4.512 2.929 7.071 2.929s5.118-.977 7.071-2.929c3.905-3.905 3.905-10.237 0-14.143L314.643 379l22.465-22.465c3.905-3.905 3.905-10.237-.001-14.142zm127.633 29.536l-29.536-29.536c-3.906-3.904-10.236-3.904-14.143 0-3.905 3.905-3.905 10.237 0 14.143L443.526 379l-22.465 22.465c-3.905 3.905-3.905 10.237 0 14.143 1.953 1.952 4.512 2.929 7.071 2.929s5.118-.977 7.071-2.929l29.536-29.536c3.907-3.906 3.907-10.238.001-14.143zm-72.533-41.192c-5.33-1.447-10.823 1.7-12.27 7.031l-20.96 77.225c-1.447 5.33 1.701 10.823 7.031 12.27.877.238 1.758.353 2.625.353 4.403 0 8.437-2.931 9.645-7.384l20.96-77.225c1.448-5.33-1.701-10.823-7.031-12.27zM66 308h138.854c5.522 0 10-4.478 10-10s-4.478-10-10-10H66c-5.522 0-10 4.478-10 10s4.478 10 10 10zm-7.07-50.931C60.79 258.93 63.37 260 66 260s5.21-1.07 7.069-2.931C74.93 255.21 76 252.63 76 250s-1.07-5.21-2.931-7.07C71.21 241.069 68.63 240 66 240s-5.21 1.069-7.07 2.93S56 247.37 56 250s1.069 5.21 2.93 7.069zM255.749 240H111c-5.522 0-10 4.478-10 10s4.478 10 10 10h144.749c5.522 0 10-4.478 10-10s-4.478-10-10-10zM66 356h33.028c5.522 0 10-4.478 10-10s-4.478-10-10-10H66c-5.522 0-10 4.478-10 10s4.478 10 10 10zm138.854-20H147c-5.522 0-10 4.478-10 10s4.478 10 10 10h57.854c5.522 0 10-4.478 10-10s-4.478-10-10-10zM66 404h138.854c5.522 0 10-4.478 10-10s-4.478-10-10-10H66c-5.522 0-10 4.478-10 10s4.478 10 10 10zm0-192h47.438c5.522 0 10-4.478 10-10s-4.478-10-10-10H66c-5.522 0-10 4.478-10 10s4.478 10 10 10zm87.062-10c0 5.522 4.478 10 10 10h92.688c5.522 0 10-4.478 10-10s-4.478-10-10-10h-92.688c-5.523 0-10 4.478-10 10zm137.438 0c0 5.522 4.478 10 10 10H392c5.522 0 10-4.478 10-10s-4.478-10-10-10h-91.5c-5.522 0-10 4.478-10 10zM392 164c5.522 0 10-4.478 10-10s-4.478-10-10-10h-58.916c-5.522 0-10 4.478-10 10s4.478 10 10 10zm-245-20H66c-5.522 0-10 4.478-10 10s4.478 10 10 10h81c5.522 0 10-4.478 10-10s-4.478-10-10-10zm141.333 0h-90.98c-5.522 0-10 4.478-10 10s4.478 10 10 10h90.98c5.522 0 10-4.478 10-10s-4.478-10-10-10zM165.109 452c-2.63 0-5.21 1.069-7.069 2.93-1.86 1.86-2.931 4.44-2.931 7.07s1.07 5.21 2.931 7.069a10.073 10.073 0 007.069 2.931c2.631 0 5.21-1.07 7.07-2.931 1.87-1.859 2.93-4.439 2.93-7.069s-1.06-5.21-2.93-7.07a10.052 10.052 0 00-7.07-2.93z"/></svg>